<svg xmlns="http://www.w3.org/2000/svg" xmlns:xlink="http://www.w3.org/1999/xlink" width="500" zoomAndPan="magnify" viewBox="0 0 375 374.999991" height="500" preserveAspectRatio="xMidYMid meet" version="1.0"><defs><clipPath id="7a4f95a298"><path d="M 7.292969 8.042969 L 369.542969 8.042969 L 369.542969 370.292969 L 7.292969 370.292969 Z M 7.292969 8.042969 " clip-rule="nonzero"/></clipPath></defs><rect x="-37.5" width="450" fill="#ffffff" y="-37.499999" height="449.999989" fill-opacity="1"/><rect x="-37.5" width="450" fill="#ffffff" y="-37.499999" height="449.999989" fill-opacity="1"/><rect x="-37.5" width="450" fill="#fdfdfd" y="-37.499999" height="449.999989" fill-opacity="1"/><path fill="#f06292" d="M 0.00390625 0 L 374.996094 0 L 374.996094 375.75 L 0.00390625 375.75 L 0.00390625 0 " fill-opacity="1" fill-rule="nonzero"/><g clip-path="url(#7a4f95a298)"><path fill="#fdfdfd" d="M 350.175781 80.34375 L 369.542969 8.042969 L 297.242188 27.410156 L 313.5 43.667969 L 48.675781 308.5 C 48.675781 308.5 50.328125 310.433594 58.683594 318.925781 C 67.039062 327.417969 69.109375 328.941406 69.109375 328.941406 L 333.917969 64.085938 Z M 164.867188 137.058594 L 181.125 153.316406 L 200.492188 81.023438 L 128.191406 100.390625 L 144.433594 116.640625 L 38.714844 222.382812 C 38.082031 219.011719 37.570312 215.625 37.179688 212.21875 C 36.785156 208.8125 36.515625 205.394531 36.363281 201.96875 C 36.210938 198.542969 36.179688 195.117188 36.269531 191.6875 C 36.359375 188.261719 36.570312 184.839844 36.902344 181.429688 C 37.230469 178.015625 37.683594 174.617188 38.253906 171.238281 C 38.824219 167.855469 39.511719 164.5 40.316406 161.167969 C 41.125 157.832031 42.046875 154.535156 43.085938 151.265625 C 44.125 148 45.28125 144.769531 46.546875 141.585938 C 47.8125 138.398438 49.191406 135.261719 50.679688 132.171875 C 52.167969 129.082031 53.761719 126.050781 55.464844 123.074219 C 57.164062 120.09375 58.96875 117.183594 60.875 114.332031 C 62.785156 111.484375 64.789062 108.703125 66.890625 105.996094 C 68.996094 103.289062 71.191406 100.65625 73.476562 98.101562 C 75.765625 95.550781 78.140625 93.078125 80.605469 90.691406 C 83.066406 88.304688 85.609375 86.011719 88.234375 83.804688 C 90.859375 81.597656 93.558594 79.484375 96.332031 77.46875 C 99.101562 75.449219 101.945312 73.535156 104.851562 71.71875 C 107.761719 69.898438 110.730469 68.1875 113.757812 66.582031 C 116.785156 64.972656 119.867188 63.472656 123.003906 62.085938 C 126.136719 60.695312 129.316406 59.414062 132.542969 58.25 C 135.765625 57.082031 139.027344 56.03125 142.324219 55.097656 C 145.625 54.160156 148.953125 53.339844 152.308594 52.640625 C 155.664062 51.9375 159.042969 51.355469 162.4375 50.890625 C 165.835938 50.425781 169.246094 50.082031 172.667969 49.859375 C 176.089844 49.636719 179.515625 49.535156 182.941406 49.550781 C 186.371094 49.570312 189.796875 49.707031 193.214844 49.96875 C 196.632812 50.226562 200.039062 50.605469 203.433594 51.105469 C 206.824219 51.605469 210.195312 52.222656 213.542969 52.957031 C 216.894531 53.695312 220.210938 54.550781 223.5 55.519531 C 226.789062 56.492188 230.039062 57.574219 233.25 58.773438 C 236.464844 59.976562 239.628906 61.285156 242.75 62.710938 C 245.871094 64.132812 248.933594 65.664062 251.949219 67.300781 L 273.078125 46.167969 C 271.0625 44.941406 269.023438 43.757812 266.957031 42.613281 C 264.890625 41.46875 262.804688 40.371094 260.695312 39.308594 C 258.585938 38.25 256.457031 37.234375 254.304688 36.261719 C 252.15625 35.289062 249.984375 34.359375 247.796875 33.472656 C 245.609375 32.589844 243.402344 31.75 241.183594 30.953125 C 238.960938 30.15625 236.722656 29.40625 234.46875 28.699219 C 232.21875 27.996094 229.953125 27.335938 227.671875 26.722656 C 225.394531 26.109375 223.101562 25.542969 220.800781 25.019531 C 218.496094 24.5 216.183594 24.027344 213.863281 23.597656 C 211.542969 23.171875 209.214844 22.792969 206.875 22.457031 C 204.539062 22.125 202.195312 21.839844 199.847656 21.601562 C 197.5 21.363281 195.148438 21.171875 192.792969 21.03125 C 190.4375 20.886719 188.078125 20.792969 185.71875 20.746094 C 183.359375 20.699219 180.996094 20.699219 178.636719 20.746094 C 176.277344 20.792969 173.921875 20.890625 171.5625 21.035156 C 169.207031 21.179688 166.855469 21.367188 164.507812 21.609375 C 162.160156 21.847656 159.816406 22.132812 157.480469 22.464844 C 155.144531 22.800781 152.8125 23.179688 150.492188 23.609375 C 148.171875 24.035156 145.859375 24.511719 143.558594 25.035156 C 141.253906 25.554688 138.964844 26.121094 136.6875 26.738281 C 134.40625 27.351562 132.140625 28.011719 129.886719 28.71875 C 127.636719 29.421875 125.398438 30.175781 123.175781 30.972656 C 120.957031 31.769531 118.75 32.609375 116.5625 33.496094 C 114.375 34.382812 112.207031 35.3125 110.054688 36.285156 C 107.90625 37.257812 105.773438 38.273438 103.667969 39.335938 C 101.558594 40.394531 99.46875 41.496094 97.40625 42.640625 C 95.339844 43.785156 93.300781 44.972656 91.285156 46.199219 C 89.269531 47.425781 87.277344 48.691406 85.3125 50 C 83.347656 51.308594 81.410156 52.652344 79.496094 54.039062 C 77.585938 55.425781 75.707031 56.851562 73.851562 58.3125 C 72 59.773438 70.175781 61.273438 68.382812 62.808594 C 66.59375 64.347656 64.832031 65.917969 63.101562 67.523438 C 61.375 69.132812 59.679688 70.773438 58.015625 72.449219 C 56.355469 74.125 54.726562 75.835938 53.132812 77.574219 C 51.539062 79.316406 49.984375 81.089844 48.460938 82.894531 C 46.941406 84.699219 45.457031 86.535156 44.011719 88.402344 C 42.5625 90.265625 41.15625 92.160156 39.785156 94.082031 C 38.414062 96.003906 37.082031 97.953125 35.792969 99.929688 C 34.5 101.902344 33.25 103.90625 32.039062 105.929688 C 30.828125 107.957031 29.660156 110.007812 28.53125 112.082031 C 27.40625 114.15625 26.320312 116.25 25.277344 118.367188 C 24.234375 120.488281 23.234375 122.625 22.28125 124.78125 C 21.324219 126.941406 20.410156 129.117188 19.542969 131.3125 C 18.675781 133.507812 17.851562 135.71875 17.074219 137.949219 C 16.296875 140.175781 15.5625 142.417969 14.875 144.679688 C 14.1875 146.9375 13.546875 149.207031 12.949219 151.492188 C 12.355469 153.773438 11.804688 156.070312 11.304688 158.375 C 10.800781 160.683594 10.34375 163 9.9375 165.324219 C 9.527344 167.648438 9.164062 169.980469 8.851562 172.320312 C 8.535156 174.660156 8.269531 177.003906 8.050781 179.355469 C 7.832031 181.703125 7.660156 184.058594 7.535156 186.414062 C 7.410156 188.773438 7.332031 191.128906 7.304688 193.492188 C 7.277344 195.851562 7.296875 198.210938 7.363281 200.570312 C 7.429688 202.929688 7.542969 205.289062 7.707031 207.640625 C 7.867188 209.996094 8.078125 212.347656 8.335938 214.695312 C 8.59375 217.039062 8.898438 219.378906 9.25 221.714844 C 9.601562 224.046875 10 226.375 10.445312 228.691406 C 10.890625 231.011719 11.386719 233.316406 11.925781 235.617188 C 12.464844 237.914062 13.050781 240.199219 13.683594 242.472656 C 14.316406 244.75 14.992188 247.007812 15.71875 249.253906 C 16.441406 251.503906 17.210938 253.734375 18.023438 255.949219 C 18.835938 258.164062 19.695312 260.363281 20.597656 262.542969 C 21.503906 264.722656 22.449219 266.886719 23.441406 269.027344 C 24.429688 271.171875 25.464844 273.292969 26.539062 275.394531 L 48.257812 253.667969 Z M 310.261719 125.703125 C 340.367188 181.039062 332.050781 251.917969 285.285156 298.683594 C 283.199219 300.769531 281.050781 302.792969 278.839844 304.746094 C 276.628906 306.703125 274.359375 308.589844 272.035156 310.410156 C 269.710938 312.226562 267.332031 313.972656 264.902344 315.648438 C 262.46875 317.324219 259.992188 318.921875 257.460938 320.445312 C 254.933594 321.96875 252.363281 323.414062 249.746094 324.78125 C 247.128906 326.148438 244.476562 327.4375 241.78125 328.644531 C 239.089844 329.847656 236.359375 330.972656 233.597656 332.015625 C 230.835938 333.054688 228.042969 334.011719 225.222656 334.882812 C 222.402344 335.753906 219.558594 336.539062 216.691406 337.238281 C 213.824219 337.9375 210.9375 338.546875 208.035156 339.070312 C 205.128906 339.59375 202.210938 340.03125 199.277344 340.378906 C 196.347656 340.722656 193.410156 340.980469 190.460938 341.148438 C 187.515625 341.316406 184.566406 341.398438 181.613281 341.386719 C 178.660156 341.375 175.714844 341.273438 172.769531 341.085938 C 169.820312 340.894531 166.886719 340.617188 163.957031 340.25 C 161.027344 339.878906 158.113281 339.425781 155.210938 338.878906 L 193.410156 300.671875 L 209.675781 316.9375 L 229.042969 244.628906 L 156.734375 263.996094 L 173 280.261719 L 102.207031 351.054688 C 104.308594 352.128906 106.429688 353.164062 108.574219 354.152344 C 110.714844 355.144531 112.875 356.09375 115.058594 356.996094 C 117.238281 357.898438 119.4375 358.757812 121.652344 359.570312 C 123.867188 360.386719 126.097656 361.15625 128.34375 361.878906 C 130.589844 362.601562 132.851562 363.28125 135.125 363.914062 C 137.398438 364.546875 139.6875 365.132812 141.984375 365.671875 C 144.28125 366.210938 146.589844 366.703125 148.90625 367.148438 C 151.226562 367.597656 153.550781 367.996094 155.886719 368.347656 C 158.21875 368.699219 160.558594 369.003906 162.90625 369.261719 C 165.253906 369.519531 167.601562 369.730469 169.957031 369.894531 C 172.3125 370.054688 174.667969 370.167969 177.027344 370.238281 C 179.386719 370.304688 181.75 370.324219 184.109375 370.292969 C 186.46875 370.265625 188.828125 370.1875 191.183594 370.066406 C 193.542969 369.941406 195.894531 369.769531 198.246094 369.550781 C 200.59375 369.328125 202.941406 369.0625 205.28125 368.75 C 207.617188 368.433594 209.949219 368.074219 212.277344 367.664062 C 214.601562 367.253906 216.914062 366.800781 219.222656 366.296875 C 221.527344 365.792969 223.824219 365.246094 226.109375 364.648438 C 228.390625 364.054688 230.664062 363.414062 232.921875 362.726562 C 235.179688 362.039062 237.421875 361.304688 239.652344 360.527344 C 241.878906 359.75 244.089844 358.925781 246.285156 358.058594 C 248.480469 357.191406 250.65625 356.277344 252.816406 355.324219 C 254.972656 354.367188 257.113281 353.367188 259.230469 352.324219 C 261.347656 351.28125 263.445312 350.199219 265.515625 349.070312 C 267.589844 347.945312 269.640625 346.773438 271.667969 345.566406 C 273.695312 344.355469 275.695312 343.101562 277.671875 341.8125 C 279.648438 340.519531 281.597656 339.191406 283.519531 337.820312 C 285.441406 336.449219 287.332031 335.042969 289.199219 333.59375 C 291.0625 332.148438 292.898438 330.664062 294.703125 329.140625 C 296.507812 327.621094 298.28125 326.0625 300.023438 324.472656 C 301.765625 322.878906 303.472656 321.25 305.148438 319.589844 C 306.824219 317.925781 308.46875 316.230469 310.074219 314.503906 C 311.683594 312.773438 313.253906 311.011719 314.789062 309.222656 C 316.324219 307.429688 317.824219 305.605469 319.289062 303.753906 C 320.75 301.898438 322.171875 300.019531 323.558594 298.109375 C 324.945312 296.199219 326.292969 294.257812 327.601562 292.292969 C 328.90625 290.328125 330.175781 288.339844 331.402344 286.320312 C 332.628906 284.304688 333.816406 282.265625 334.960938 280.199219 C 336.101562 278.136719 337.207031 276.050781 338.265625 273.941406 C 339.324219 271.832031 340.34375 269.703125 341.316406 267.550781 C 342.289062 265.402344 343.21875 263.234375 344.105469 261.042969 C 344.992188 258.855469 345.832031 256.652344 346.628906 254.429688 C 347.425781 252.207031 348.175781 249.972656 348.882812 247.71875 C 349.589844 245.464844 350.25 243.199219 350.863281 240.921875 C 351.476562 238.644531 352.046875 236.351562 352.566406 234.050781 C 353.089844 231.746094 353.5625 229.4375 353.992188 227.113281 C 354.417969 224.792969 354.800781 222.464844 355.132812 220.128906 C 355.46875 217.792969 355.753906 215.449219 355.992188 213.101562 C 356.230469 210.753906 356.421875 208.398438 356.566406 206.042969 C 356.710938 203.6875 356.804688 201.332031 356.855469 198.96875 C 356.902344 196.609375 356.902344 194.25 356.855469 191.890625 C 356.808594 189.53125 356.714844 187.171875 356.570312 184.816406 C 356.425781 182.460938 356.238281 180.109375 356 177.761719 C 355.761719 175.410156 355.476562 173.070312 355.140625 170.730469 C 354.808594 168.394531 354.429688 166.066406 354.003906 163.746094 C 353.574219 161.421875 353.101562 159.113281 352.582031 156.808594 C 352.058594 154.507812 351.492188 152.214844 350.878906 149.9375 C 350.265625 147.65625 349.605469 145.390625 348.902344 143.140625 C 348.195312 140.886719 347.445312 138.648438 346.648438 136.425781 C 345.851562 134.203125 345.011719 132 344.128906 129.8125 C 343.242188 127.625 342.3125 125.453125 341.339844 123.304688 C 340.367188 121.152344 339.351562 119.023438 338.292969 116.914062 C 337.234375 114.804688 336.132812 112.71875 334.988281 110.652344 C 333.84375 108.585938 332.660156 106.546875 331.433594 104.53125 Z M 310.261719 125.703125 " fill-opacity="1" fill-rule="nonzero"/></g></svg>